<?xml version="1.0" standalone="no"?>
<!DOCTYPE svg PUBLIC "-//W3C//DTD SVG 20010904//EN"
 "http://www.w3.org/TR/2001/REC-SVG-20010904/DTD/svg10.dtd">
<svg version="1.0" xmlns="http://www.w3.org/2000/svg"
 width="1024.000000pt" height="1024.000000pt" viewBox="0 0 1024.000000 1024.000000"
 preserveAspectRatio="xMidYMid meet">
<metadata>
Created by potrace 1.11, written by Peter Selinger 2001-2013
</metadata>
<g transform="translate(0.000000,1024.000000) scale(0.100000,-0.100000)"
fill="#000000" stroke="none">
<path d="M5110 9793 c-41 -37 -483 -475 -981 -973 -939 -938 -977 -975 -1019
-1003 -23 -15 -29 -15 -54 -2 -48 25 -42 17 17 -24 31 -22 315 -299 631 -617
l574 -576 -41 -46 c-66 -72 -374 -375 -408 -401 -27 -21 -33 -22 -55 -10 -33
17 -250 234 -281 280 -13 20 -43 51 -65 70 -61 48 -156 140 -482 462 -255 253
-330 321 -351 316 -6 -1 -105 10 -149 17 -22 4 -38 -4 -81 -41 -29 -24 -429
-420 -888 -879 -460 -458 -863 -857 -896 -886 -34 -29 -61 -57 -61 -62 0 -5
-38 -47 -85 -93 -79 -77 -99 -105 -75 -105 6 0 10 -5 10 -12 0 -6 28 -43 62
-82 52 -59 1359 -1368 1715 -1717 59 -59 141 -141 181 -183 l72 -76 107 -21
c99 -20 109 -20 140 -5 45 22 122 95 686 659 269 269 492 487 497 485 25 -9
442 -414 459 -445 14 -26 -9 -50 -629 -672 -264 -265 -480 -490 -480 -499 0
-24 -162 -124 -186 -116 -11 4 1 -8 26 -26 69 -51 78 -61 929 -910 1114 -1112
1155 -1150 1224 -1156 18 -1 46 -5 62 -8 17 -4 51 -9 77 -12 45 -4 48 -3 104
48 136 124 1903 1899 1947 1955 l48 63 -31 0 c-22 0 -33 6 -39 23 -23 59 -147
192 -675 721 -314 315 -586 594 -604 619 -30 43 -31 47 -13 47 11 0 26 10 32
23 18 34 50 71 203 231 77 82 146 154 151 160 6 6 24 28 39 49 l29 38 14 -30
c8 -16 145 -157 305 -313 159 -156 328 -323 376 -372 236 -240 454 -456 502
-497 66 -55 148 -95 212 -103 26 -4 54 -9 62 -12 17 -7 66 28 145 101 152 140
1847 1850 1879 1895 10 14 26 42 36 63 l17 38 -48 51 c-26 28 -331 336 -678
683 -346 347 -692 694 -767 771 -76 76 -227 227 -337 334 -194 190 -201 195
-263 213 -34 9 -76 19 -93 22 -16 3 -41 8 -55 10 -31 7 -98 -52 -325 -283 -82
-85 -203 -206 -269 -270 -65 -64 -133 -132 -150 -151 -17 -18 -83 -85 -146
-148 -63 -63 -183 -182 -266 -264 l-152 -151 -28 24 c-134 110 -355 339 -345
356 11 19 479 497 949 969 l403 405 -93 96 c-51 53 -509 512 -1018 1020 -812
810 -932 927 -985 952 -33 17 -76 32 -95 34 -19 2 -51 7 -70 11 -34 6 -40 3
-110 -62z"/>
</g>
</svg>
